<svg xmlns="http://www.w3.org/2000/svg" xmlns:xlink="http://www.w3.org/1999/xlink" version="1.1" x="0px" y="0px" viewBox="0 0 1024 1280" style="enable-background:new 0 0 1024 1024;" xml:space="preserve"><g><g><g><g><path d="M517,565.5c-26.6-14-53.1-28.1-79.7-42.1c-42.1-22.2-84.2-44.5-126.3-66.7c-9.6-5.1-19.3-10.2-28.9-15.3      c1.7,2.9,3.3,5.8,5,8.6c0-27.9,0-55.8,0-83.6c0-44.5,0-89,0-133.5c0-10.3,0-20.6,0-30.8c-5,2.9-10,5.8-15,8.6      c26.6,14,53.1,28.1,79.7,42.1c42.1,22.3,84.2,44.5,126.3,66.8c9.6,5.1,19.3,10.2,28.9,15.3c-1.7-2.9-3.3-5.8-5-8.6      c0,27.9,0,55.8,0,83.6c0,44.5,0,89,0,133.4c0,10.3,0,20.5,0,30.8c0,12.9,20,12.9,20,0c0-27.9,0-55.8,0-83.6c0-44.5,0-89,0-133.4      c0-10.3,0-20.5,0-30.8c0-3.4-1.9-7-5-8.6c-26.6-14-53.1-28.1-79.7-42.1c-42.1-22.3-84.2-44.5-126.3-66.8      c-9.6-5.1-19.3-10.2-28.9-15.3c-6.6-3.5-15,0.8-15,8.6c0,27.9,0,55.8,0,83.6c0,44.5,0,89,0,133.5c0,10.3,0,20.6,0,30.8      c0,3.4,1.9,7,5,8.6c26.6,14,53.1,28.1,79.7,42.1c42.1,22.2,84.2,44.5,126.3,66.7c9.6,5.1,19.3,10.2,28.9,15.3      C518.3,588.7,528.4,571.5,517,565.5z"/></g></g><g><g><path d="M742,441.4c-26.6,14-53.1,28.1-79.7,42.1c-42.1,22.2-84.3,44.5-126.4,66.7c-9.6,5.1-19.3,10.2-28.9,15.3      c5,2.9,10,5.8,15,8.6c0-27.9,0-55.8,0-83.6c0-44.5,0-89,0-133.4c0-10.3,0-20.5,0-30.8c-1.7,2.9-3.3,5.8-5,8.6      c26.6-14,53.1-28.1,79.7-42.1c42.1-22.3,84.3-44.5,126.4-66.8c9.6-5.1,19.3-10.2,28.9-15.3c-5-2.9-10-5.8-15-8.6      c0,27.9,0,55.8,0,83.6c0,44.5,0,89,0,133.5c0,10.3,0,20.6,0,30.8c0,12.9,20,12.9,20,0c0-27.9,0-55.8,0-83.6c0-44.5,0-89,0-133.5      c0-10.3,0-20.6,0-30.8c0-7.8-8.4-12.1-15-8.6c-26.6,14-53.1,28.1-79.7,42.1c-42.1,22.3-84.3,44.5-126.4,66.8      c-9.6,5.1-19.3,10.2-28.9,15.3c-3.1,1.6-5,5.2-5,8.6c0,27.9,0,55.8,0,83.6c0,44.5,0,89,0,133.4c0,10.3,0,20.5,0,30.8      c0,7.8,8.4,12.1,15,8.6c26.6-14,53.1-28.1,79.7-42.1c42.1-22.2,84.3-44.5,126.4-66.7c9.6-5.1,19.3-10.2,28.9-15.3      C763.4,452.6,753.3,435.3,742,441.4z"/></g></g><g><g><path d="M742,193.4c-26.6,14-53.1,28.1-79.7,42.1c-42.1,22.3-84.3,44.5-126.4,66.8c-9.6,5.1-19.3,10.2-28.9,15.3      c3.4,0,6.7,0,10.1,0c-26.6-14-53.1-28.1-79.7-42.1c-42.1-22.3-84.2-44.5-126.3-66.8c-9.6-5.1-19.3-10.2-28.9-15.3      c0,5.8,0,11.5,0,17.3c26.6-14,53.1-28,79.7-42.1c42.1-22.2,84.2-44.5,126.3-66.7c9.6-5.1,19.3-10.2,28.9-15.3      c-3.4,0-6.7,0-10.1,0c26.6,14,53.1,28,79.7,42.1c42.1,22.2,84.3,44.5,126.4,66.7c9.6,5.1,19.3,10.2,28.9,15.3      c11.4,6,21.5-11.3,10.1-17.3c-26.8-14.2-53.7-28.3-80.5-42.5c-42.1-22.3-84.3-44.5-126.4-66.8c-9.2-4.9-18.4-10.1-27.8-14.7      c-5.4-2.6-9.2-0.8-13.6,1.6c-4.8,2.5-9.6,5-14.3,7.6c-40.2,21.2-80.3,42.4-120.5,63.6c-31.7,16.8-64,32.8-95.3,50.3      c-0.5,0.3-1,0.5-1.5,0.8c-6.5,3.4-6.5,13.8,0,17.3c26.8,14.2,53.7,28.4,80.5,42.5c42.1,22.3,84.3,44.5,126.4,66.8      c9.2,4.9,18.4,10.1,27.8,14.7c5.4,2.6,9.2,0.8,13.7-1.6c4.8-2.5,9.6-5.1,14.3-7.6c40.2-21.2,80.3-42.4,120.5-63.7      c31.7-16.8,64-32.8,95.3-50.3c0.5-0.3,1-0.5,1.5-0.8C763.4,204.7,753.3,187.4,742,193.4z"/></g></g><g><g><path d="M624.4,131.4c-26.5,14-53.1,28.1-79.6,42.1c-42.1,22.3-84.2,44.5-126.3,66.8      c-9.6,5.1-19.3,10.2-28.9,15.3c-11.4,6-1.3,23.3,10.1,17.3c26.5-14,53.1-28.1,79.6-42.1c42.1-22.3,84.2-44.5,126.3-66.8      c9.6-5.1,19.3-10.2,28.9-15.3C645.9,142.7,635.8,125.4,624.4,131.4L624.4,131.4z"/></g></g></g><g><g><g><path d="M282,937.4c-26.5-14-53.1-28-79.6-42c-42.1-22.2-84.2-44.5-126.3-66.7c-9.6-5.1-19.3-10.2-28.9-15.3      c1.7,2.9,3.3,5.8,5,8.6c0-27.9,0-55.7,0-83.6c0-44.5,0-88.9,0-133.4c0-10.3,0-20.5,0-30.8c-5,2.9-10,5.8-15,8.6      c26.5,14,53.1,28.1,79.6,42.1c42.1,22.3,84.2,44.5,126.3,66.8c9.6,5.1,19.3,10.2,28.9,15.3c-1.7-2.9-3.3-5.8-5-8.6      c0,27.9,0,55.7,0,83.6c0,44.4,0,88.9,0,133.3c0,10.3,0,20.5,0,30.8c0,12.9,20,12.9,20,0c0-27.9,0-55.7,0-83.6      c0-44.4,0-88.9,0-133.3c0-10.3,0-20.5,0-30.8c0-3.4-1.9-7-5-8.6c-26.5-14-53.1-28.1-79.6-42.1c-42.1-22.3-84.2-44.5-126.3-66.8      c-9.6-5.1-19.3-10.2-28.9-15.3c-6.6-3.5-15,0.8-15,8.6c0,27.9,0,55.7,0,83.6c0,44.5,0,88.9,0,133.4c0,10.3,0,20.5,0,30.8      c0,3.4,1.9,7,5,8.6c26.5,14,53.1,28,79.6,42c42.1,22.2,84.2,44.5,126.3,66.7c9.6,5.1,19.3,10.2,28.9,15.3      C283.3,960.7,293.4,943.4,282,937.4z"/></g></g><g><g><path d="M507,813.4c-26.6,14-53.1,28-79.7,42c-42.1,22.2-84.3,44.5-126.4,66.7c-9.6,5.1-19.3,10.2-28.9,15.3      c5,2.9,10,5.8,15,8.6c0-27.9,0-55.7,0-83.6c0-44.4,0-88.9,0-133.3c0-10.3,0-20.5,0-30.8c-1.7,2.9-3.3,5.8-5,8.6      c26.6-14,53.1-28.1,79.7-42.1c42.1-22.3,84.3-44.5,126.4-66.8c9.6-5.1,19.3-10.2,28.9-15.3c-5-2.9-10-5.8-15-8.6      c0,27.9,0,55.8,0,83.6c0,44.5,0,89,0,133.5c0,10.3,0,20.6,0,30.8c0,12.9,20,12.9,20,0c0-27.9,0-55.8,0-83.6c0-44.5,0-89,0-133.5      c0-10.3,0-20.6,0-30.8c0-7.8-8.4-12.1-15-8.6c-26.6,14-53.1,28.1-79.7,42.1c-42.1,22.3-84.3,44.5-126.4,66.8      c-9.6,5.1-19.3,10.2-28.9,15.3c-3.1,1.6-5,5.2-5,8.6c0,27.9,0,55.7,0,83.6c0,44.4,0,88.9,0,133.3c0,10.3,0,20.5,0,30.8      c0,7.8,8.4,12.1,15,8.6c26.6-14,53.1-28,79.7-42c42.1-22.2,84.3-44.5,126.4-66.7c9.6-5.1,19.3-10.2,28.9-15.3      C528.4,824.6,518.3,807.4,507,813.4z"/></g></g><g><g><path d="M507,565.5c-26.6,14-53.1,28.1-79.7,42.1c-42.1,22.3-84.3,44.5-126.4,66.8c-9.6,5.1-19.3,10.2-28.9,15.3      c3.4,0,6.7,0,10.1,0c-26.5-14-53.1-28.1-79.6-42.1c-42.1-22.3-84.2-44.5-126.3-66.8c-9.6-5.1-19.3-10.2-28.9-15.3      c0,5.8,0,11.5,0,17.3c26.6-14,53.1-28.1,79.7-42.1c42.1-22.3,84.2-44.5,126.3-66.8c9.6-5.1,19.3-10.2,28.9-15.3      c-3.4,0-6.7,0-10.1,0c26.6,14,53.1,28.1,79.7,42.1c42.1,22.2,84.2,44.5,126.3,66.7c9.6,5.1,19.3,10.2,28.9,15.3      c11.4,6,21.5-11.2,10.1-17.3c-26.8-14.2-53.7-28.3-80.5-42.5c-42.1-22.3-84.3-44.5-126.4-66.8c-9.2-4.9-18.4-10.1-27.8-14.7      c-5.4-2.6-9.2-0.8-13.6,1.6c-4.8,2.5-9.6,5.1-14.3,7.6c-40.2,21.2-80.3,42.5-120.5,63.7c-31.7,16.8-64,32.8-95.3,50.4      c-0.5,0.3-1,0.5-1.5,0.8c-6.5,3.4-6.5,13.8,0,17.3c26.8,14.2,53.7,28.4,80.5,42.5c42.1,22.3,84.2,44.5,126.4,66.8      c9.2,4.9,18.4,10.1,27.8,14.7c5.4,2.6,9.2,0.8,13.7-1.6c4.8-2.5,9.6-5.1,14.3-7.6c40.2-21.2,80.3-42.5,120.5-63.7      c31.7-16.8,64-32.8,95.3-50.4c0.5-0.3,1-0.5,1.5-0.8C528.4,576.7,518.3,559.4,507,565.5z"/></g></g><g><g><path d="M389.4,503.6c-26.5,14-53.1,28.1-79.6,42.1c-42.1,22.3-84.2,44.5-126.3,66.8      c-9.6,5.1-19.3,10.2-28.9,15.3c-11.4,6-1.3,23.3,10.1,17.3c26.5-14,53.1-28.1,79.6-42.1c42.1-22.3,84.2-44.5,126.3-66.8      c9.6-5.1,19.3-10.2,28.9-15.3C410.9,514.8,400.8,497.5,389.4,503.6L389.4,503.6z"/></g></g></g><g><g><g><path d="M752.1,937.4c-26.6-14-53.1-28-79.7-42c-42.1-22.2-84.3-44.5-126.4-66.7c-9.6-5.1-19.3-10.2-28.9-15.3      c1.7,2.9,3.3,5.8,5,8.6c0-27.9,0-55.8,0-83.6c0-44.5,0-89,0-133.5c0-10.3,0-20.6,0-30.8c-5,2.9-10,5.8-15,8.6      c26.6,14,53.1,28.1,79.7,42.1c42.1,22.3,84.3,44.5,126.4,66.8c9.6,5.1,19.3,10.2,28.9,15.3c-1.7-2.9-3.3-5.8-5-8.6      c0,27.9,0,55.7,0,83.6c0,44.4,0,88.9,0,133.3c0,10.3,0,20.5,0,30.8c0,12.9,20,12.9,20,0c0-27.9,0-55.7,0-83.6      c0-44.4,0-88.9,0-133.3c0-10.3,0-20.5,0-30.8c0-3.4-1.9-7-5-8.6c-26.6-14-53.1-28.1-79.7-42.1c-42.1-22.3-84.3-44.5-126.4-66.8      c-9.6-5.1-19.3-10.2-28.9-15.3c-6.6-3.5-15,0.8-15,8.6c0,27.9,0,55.8,0,83.6c0,44.5,0,89,0,133.5c0,10.3,0,20.6,0,30.8      c0,3.4,1.9,7,5,8.6c26.6,14,53.1,28,79.7,42c42.1,22.2,84.3,44.5,126.4,66.7c9.6,5.1,19.3,10.2,28.9,15.3      C753.3,960.7,763.5,943.4,752.1,937.4z"/></g></g><g><g><path d="M976.8,813.4c-26.5,14-53.1,28-79.6,42c-42.1,22.2-84.2,44.5-126.3,66.7c-9.6,5.1-19.3,10.2-28.9,15.3      c5,2.9,10,5.8,15,8.6c0-27.9,0-55.7,0-83.6c0-44.4,0-88.9,0-133.3c0-10.3,0-20.5,0-30.8c-1.7,2.9-3.3,5.8-5,8.6      c26.5-14,53.1-28.1,79.6-42.1c42.1-22.3,84.2-44.5,126.3-66.8c9.6-5.1,19.3-10.2,28.9-15.3c-5-2.9-10-5.8-15-8.6      c0,27.9,0,55.7,0,83.6c0,44.5,0,88.9,0,133.4c0,10.3,0,20.5,0,30.8c0,12.9,20,12.9,20,0c0-27.9,0-55.7,0-83.6      c0-44.5,0-88.9,0-133.4c0-10.3,0-20.5,0-30.8c0-7.8-8.4-12.1-15-8.6c-26.5,14-53.1,28.1-79.6,42.1      c-42.1,22.3-84.2,44.5-126.3,66.8c-9.6,5.1-19.3,10.2-28.9,15.3c-3.1,1.6-5,5.2-5,8.6c0,27.9,0,55.7,0,83.6      c0,44.4,0,88.9,0,133.3c0,10.3,0,20.5,0,30.8c0,7.8,8.4,12.1,15,8.6c26.5-14,53.1-28,79.6-42c42.1-22.2,84.2-44.5,126.3-66.7      c9.6-5.1,19.3-10.2,28.9-15.3C998.3,824.6,988.2,807.4,976.8,813.4z"/></g></g><g><g><path d="M976.8,565.6c-26.5,14-53.1,28.1-79.6,42.1c-42.1,22.3-84.2,44.5-126.3,66.8      c-9.6,5.1-19.3,10.2-28.9,15.3c3.4,0,6.7,0,10.1,0c-26.6-14-53.1-28.1-79.7-42.1c-42.1-22.3-84.3-44.5-126.4-66.8      c-9.6-5.1-19.3-10.2-28.9-15.3c0,5.8,0,11.5,0,17.3c26.6-14,53.1-28.1,79.7-42.1c42.1-22.2,84.3-44.5,126.4-66.7      c9.6-5.1,19.3-10.2,28.9-15.3c-3.4,0-6.7,0-10.1,0c26.5,14,53.1,28.1,79.6,42.1c42.1,22.3,84.2,44.5,126.3,66.8      c9.6,5.1,19.3,10.2,28.9,15.3c11.4,6,21.5-11.2,10.1-17.3c-26.8-14.2-53.7-28.4-80.5-42.6c-42.1-22.3-84.2-44.5-126.4-66.8      c-9.2-4.9-18.4-10.1-27.8-14.7c-5.4-2.6-9.2-0.8-13.7,1.6c-4.8,2.5-9.6,5-14.3,7.6c-40.2,21.2-80.3,42.4-120.5,63.6      c-31.7,16.8-64,32.8-95.3,50.3c-0.5,0.3-1,0.5-1.5,0.8c-6.5,3.4-6.5,13.8,0,17.3c26.8,14.2,53.7,28.4,80.5,42.6      c42.1,22.3,84.3,44.6,126.4,66.8c9.2,4.9,18.4,10.1,27.8,14.7c5.4,2.6,9.2,0.8,13.6-1.6c4.8-2.5,9.6-5.1,14.3-7.6      c40.1-21.2,80.3-42.4,120.4-63.7c31.7-16.8,64-32.8,95.2-50.3c0.5-0.3,1-0.5,1.5-0.8C998.3,576.8,988.2,559.5,976.8,565.6z"/></g></g><g><g><path d="M859.4,503.6c-26.5,14-53.1,28.1-79.6,42.1c-42.1,22.3-84.2,44.5-126.3,66.8      c-9.6,5.1-19.3,10.2-28.9,15.3c-11.4,6-1.3,23.3,10.1,17.3c26.5-14,53.1-28.1,79.6-42.1c42.1-22.3,84.2-44.5,126.3-66.8      c9.6-5.1,19.3-10.2,28.9-15.3C880.9,514.8,870.8,497.5,859.4,503.6L859.4,503.6z"/></g></g></g></g><text x="0" y="1039" fill="#000000" font-size="5px" font-weight="bold" font-family="'Helvetica Neue', Helvetica, Arial-Unicode, Arial, Sans-serif">Created by shashank singh</text><text x="0" y="1044" fill="#000000" font-size="5px" font-weight="bold" font-family="'Helvetica Neue', Helvetica, Arial-Unicode, Arial, Sans-serif">from the Noun Project</text></svg>